STARTFONT 2.1
FONT -Fondu-Espy Serif Bold-Medium-R-Normal--16-150-75-75-P-107-MacRoman-1
SIZE 15 75 75
FONTBOUNDINGBOX 25 20 -2 -4
COMMENT Created by Fondu from a mac NFNT/FONT resource
STARTPROPERTIES 17
FOUNDRY "Fondu"
FAMILY_NAME "Espy Serif Bold"
WEIGHT_NAME "Medium"
SLANT "R"
SETWIDTH_NAME "Normal"
ADD_STYLE_NAME ""
PIXEL_SIZE 16
POINT_SIZE 150
RESOLUTION_X 75
RESOLUTION_Y 75
SPACING "P"
AVERAGE_WIDTH 107
CHARSET_REGISTRY "MacRoman"
CHARSET_ENCODING "1"
FONT_ASCENT 16
FONT_DESCENT 4
FACE_NAME "Espy Serif Bold 16"
ENDPROPERTIES
CHARS 224
STARTCHAR space
ENCODING 32
SWIDTH 250 0
DWIDTH 4 0
BBX 0 0 -2 -4
BITMAP
ENDCHAR
STARTCHAR exclam
ENCODING 33
SWIDTH 375 0
DWIDTH 6 0
BBX 3 12 1 0
BITMAP
E0
E0
E0
E0
E0
E0
E0
E0
E0
00
E0
E0
ENDCHAR
STARTCHAR quotedbl
ENCODING 34
SWIDTH 500 0
DWIDTH 8 0
BBX 7 5 0 8
BITMAP
EE
EE
EE
66
66
ENDCHAR
STARTCHAR numbersign
ENCODING 35
SWIDTH 1000 0
DWIDTH 16 0
BBX 16 11 0 0
BITMAP
079E
079E
0F3C
7FFF
1E78
1E78
3CF0
FFFE
3CF0
79E0
79E0
ENDCHAR
STARTCHAR dollar
ENCODING 36
SWIDTH 625 0
DWIDTH 10 0
BBX 8 15 1 -2
BITMAP
08
08
7E
E3
E0
F0
FC
7E
3F
0F
07
C7
7E
08
08
ENDCHAR
STARTCHAR percent
ENCODING 37
SWIDTH 1062 0
DWIDTH 17 0
BBX 16 12 0 0
BITMAP
7C38
EFF8
EE70
EEE0
7CE0
01C0
0380
03BE
0777
0E77
0E77
1C3E
ENDCHAR
STARTCHAR ampersand
ENCODING 38
SWIDTH 1000 0
DWIDTH 16 0
BBX 14 12 1 0
BITMAP
1FC0
3CE0
3CE0
3DC0
1F80
3F3C
7F98
F3F0
F1E0
F0F0
F9F8
7F3C
ENDCHAR
STARTCHAR quotesingle
ENCODING 39
SWIDTH 250 0
DWIDTH 4 0
BBX 3 5 0 8
BITMAP
E0
E0
E0
60
60
ENDCHAR
STARTCHAR parenleft
ENCODING 40
SWIDTH 375 0
DWIDTH 6 0
BBX 6 15 0 -2
BITMAP
0C
38
30
70
60
E0
E0
E0
E0
E0
60
70
30
38
0C
ENDCHAR
STARTCHAR parenright
ENCODING 41
SWIDTH 375 0
DWIDTH 6 0
BBX 6 15 -1 -2
BITMAP
C0
70
30
38
18
1C
1C
1C
1C
1C
18
38
30
70
C0
ENDCHAR
STARTCHAR asterisk
ENCODING 42
SWIDTH 375 0
DWIDTH 6 0
BBX 5 6 0 7
BITMAP
20
A8
70
70
A8
20
ENDCHAR
STARTCHAR plus
ENCODING 43
SWIDTH 625 0
DWIDTH 10 0
BBX 8 8 1 1
BITMAP
18
18
18
FF
FF
18
18
18
ENDCHAR
STARTCHAR comma
ENCODING 44
SWIDTH 312 0
DWIDTH 5 0
BBX 3 4 1 -2
BITMAP
E0
E0
60
C0
ENDCHAR
STARTCHAR hyphen
ENCODING 45
SWIDTH 500 0
DWIDTH 8 0
BBX 7 2 0 5
BITMAP
FE
FE
ENDCHAR
STARTCHAR period
ENCODING 46
SWIDTH 312 0
DWIDTH 5 0
BBX 3 2 1 0
BITMAP
E0
E0
ENDCHAR
STARTCHAR slash
ENCODING 47
SWIDTH 562 0
DWIDTH 9 0
BBX 9 14 0 -2
BITMAP
0380
0380
0700
0700
0E00
0E00
1C00
1C00
3800
3800
7000
7000
E000
E000
ENDCHAR
STARTCHAR zero
ENCODING 48
SWIDTH 687 0
DWIDTH 11 0
BBX 10 12 0 0
BITMAP
3F00
7380
7380
F3C0
F3C0
F3C0
F3C0
F3C0
F3C0
7380
7380
3F00
ENDCHAR
STARTCHAR one
ENCODING 49
SWIDTH 687 0
DWIDTH 11 0
BBX 9 12 0 0
BITMAP
1E00
3E00
7E00
DE00
1E00
1E00
1E00
1E00
1E00
1E00
1E00
7F80
ENDCHAR
STARTCHAR two
ENCODING 50
SWIDTH 687 0
DWIDTH 11 0
BBX 10 12 0 0
BITMAP
7F00
E780
C3C0
03C0
03C0
0780
0F00
1C00
3800
70C0
FFC0
FFC0
ENDCHAR
STARTCHAR three
ENCODING 51
SWIDTH 687 0
DWIDTH 11 0
BBX 10 12 0 0
BITMAP
7F00
E780
C3C0
03C0
0780
1F00
0780
03C0
03C0
C3C0
E780
7F00
ENDCHAR
STARTCHAR four
ENCODING 52
SWIDTH 687 0
DWIDTH 11 0
BBX 10 12 0 0
BITMAP
0700
0E00
1C00
3B80
7780
E780
C780
FFC0
0780
0780
0780
0FC0
ENDCHAR
STARTCHAR five
ENCODING 53
SWIDTH 687 0
DWIDTH 11 0
BBX 10 12 0 0
BITMAP
FF80
FF00
C000
C000
FF00
E780
03C0
03C0
03C0
C3C0
E780
7F00
ENDCHAR
STARTCHAR six
ENCODING 54
SWIDTH 687 0
DWIDTH 11 0
BBX 10 12 0 0
BITMAP
0F00
3B00
7000
7000
FF00
F380
F3C0
F3C0
F3C0
F3C0
7380
3F00
ENDCHAR
STARTCHAR seven
ENCODING 55
SWIDTH 687 0
DWIDTH 11 0
BBX 10 12 0 0
BITMAP
FFC0
FFC0
C380
0700
0700
0E00
1E00
1E00
1C00
3C00
3C00
3C00
ENDCHAR
STARTCHAR eight
ENCODING 56
SWIDTH 687 0
DWIDTH 11 0
BBX 10 12 0 0
BITMAP
3F00
7380
F3C0
F3C0
7B80
3E00
7780
F3C0
F3C0
F3C0
7B80
3F00
ENDCHAR
STARTCHAR nine
ENCODING 57
SWIDTH 687 0
DWIDTH 11 0
BBX 10 12 0 0
BITMAP
3F00
7380
F3C0
F3C0
F3C0
F3C0
73C0
3FC0
0380
0380
3700
3C00
ENDCHAR
STARTCHAR colon
ENCODING 58
SWIDTH 375 0
DWIDTH 6 0
BBX 3 9 1 0
BITMAP
E0
E0
00
00
00
00
00
E0
E0
ENDCHAR
STARTCHAR semicolon
ENCODING 59
SWIDTH 375 0
DWIDTH 6 0
BBX 3 11 1 -2
BITMAP
E0
E0
00
00
00
00
00
E0
E0
60
C0
ENDCHAR
STARTCHAR less
ENCODING 60
SWIDTH 625 0
DWIDTH 10 0
BBX 8 7 1 1
BITMAP
07
1E
78
E0
78
1E
07
ENDCHAR
STARTCHAR equal
ENCODING 61
SWIDTH 687 0
DWIDTH 11 0
BBX 9 5 1 2
BITMAP
FF80
FF80
0000
FF80
FF80
ENDCHAR
STARTCHAR greater
ENCODING 62
SWIDTH 625 0
DWIDTH 10 0
BBX 8 7 1 1
BITMAP
E0
78
1E
07
1E
78
E0
ENDCHAR
STARTCHAR question
ENCODING 63
SWIDTH 562 0
DWIDTH 9 0
BBX 8 12 0 0
BITMAP
7E
E7
E7
07
0E
1C
38
38
38
00
38
38
ENDCHAR
STARTCHAR at
ENCODING 64
SWIDTH 875 0
DWIDTH 14 0
BBX 13 10 0 0
BITMAP
1F80
39E0
6070
E738
EDB8
EDB8
E6F0
7000
3800
0F80
ENDCHAR
STARTCHAR A
ENCODING 65
SWIDTH 875 0
DWIDTH 14 0
BBX 15 12 -1 0
BITMAP
0380
03C0
07C0
07E0
0DE0
09F0
18F0
10F8
3FF8
207C
607C
F0FE
ENDCHAR
STARTCHAR B
ENCODING 66
SWIDTH 875 0
DWIDTH 14 0
BBX 13 12 0 0
BITMAP
FFE0
78F0
78F0
78F0
79E0
7FC0
78F0
7878
7878
7878
78F8
FFF0
ENDCHAR
STARTCHAR C
ENCODING 67
SWIDTH 750 0
DWIDTH 12 0
BBX 11 12 0 0
BITMAP
1FA0
7C60
7820
F000
F000
F000
F000
F000
F000
7820
7C60
1FC0
ENDCHAR
STARTCHAR D
ENCODING 68
SWIDTH 875 0
DWIDTH 14 0
BBX 13 12 0 0
BITMAP
FFC0
78F0
7870
7878
7878
7878
7878
7878
7878
7870
78F0
FFC0
ENDCHAR
STARTCHAR E
ENCODING 69
SWIDTH 687 0
DWIDTH 11 0
BBX 10 12 0 0
BITMAP
FFC0
78C0
7840
7800
7880
7F80
7880
7800
7800
7840
78C0
FFC0
ENDCHAR
STARTCHAR F
ENCODING 70
SWIDTH 687 0
DWIDTH 11 0
BBX 10 12 0 0
BITMAP
FFC0
78C0
7840
7800
7880
7F80
7880
7800
7800
7800
7800
FC00
ENDCHAR
STARTCHAR G
ENCODING 71
SWIDTH 875 0
DWIDTH 14 0
BBX 14 12 0 0
BITMAP
1FD0
7C30
7810
F000
F000
F000
F1FC
F078
F078
7878
7C78
1FC0
ENDCHAR
STARTCHAR H
ENCODING 72
SWIDTH 1000 0
DWIDTH 16 0
BBX 15 12 0 0
BITMAP
FC7E
783C
783C
783C
783C
7FFC
783C
783C
783C
783C
783C
FC7E
ENDCHAR
STARTCHAR I
ENCODING 73
SWIDTH 437 0
DWIDTH 7 0
BBX 6 12 0 0
BITMAP
FC
78
78
78
78
78
78
78
78
78
78
FC
ENDCHAR
STARTCHAR J
ENCODING 74
SWIDTH 437 0
DWIDTH 7 0
BBX 8 15 -2 -3
BITMAP
3F
1E
1E
1E
1E
1E
1E
1E
1E
1E
1E
1E
1E
DC
F8
ENDCHAR
STARTCHAR K
ENCODING 75
SWIDTH 937 0
DWIDTH 15 0
BBX 15 12 0 0
BITMAP
FCF8
7860
78C0
7980
7B00
7F80
7FC0
7BE0
79F0
78F8
787C
FC7E
ENDCHAR
STARTCHAR L
ENCODING 76
SWIDTH 750 0
DWIDTH 12 0
BBX 11 12 0 0
BITMAP
FC00
7800
7800
7800
7800
7800
7800
7800
7800
7820
7860
FFE0
ENDCHAR
STARTCHAR M
ENCODING 77
SWIDTH 1187 0
DWIDTH 19 0
BBX 18 12 0 0
BITMAP
FC07C0
7C0F80
7E0F80
7E1F80
6F1780
6F3780
67A780
67E780
63C780
63C780
618780
F18FC0
ENDCHAR
STARTCHAR N
ENCODING 78
SWIDTH 875 0
DWIDTH 14 0
BBX 13 12 0 0
BITMAP
F078
7830
7C30
7E30
7F30
6FB0
67F0
63F0
61F0
60F0
6070
F030
ENDCHAR
STARTCHAR O
ENCODING 79
SWIDTH 875 0
DWIDTH 14 0
BBX 13 12 0 0
BITMAP
1FC0
78F0
7070
F078
F078
F078
F078
F078
F078
7070
78F0
1FC0
ENDCHAR
STARTCHAR P
ENCODING 80
SWIDTH 812 0
DWIDTH 13 0
BBX 12 12 0 0
BITMAP
FFC0
79E0
78F0
78F0
78F0
79E0
7FC0
7800
7800
7800
7800
FC00
ENDCHAR
STARTCHAR Q
ENCODING 81
SWIDTH 875 0
DWIDTH 14 0
BBX 13 15 0 -3
BITMAP
1FC0
78F0
7070
F078
F078
F078
F078
F078
F078
7070
78F0
1FC0
0780
03C0
00F0
ENDCHAR
STARTCHAR R
ENCODING 82
SWIDTH 875 0
DWIDTH 14 0
BBX 13 12 0 0
BITMAP
FFC0
79E0
78F0
78F0
78F0
79E0
7F80
7F80
7BC0
79E0
78F0
FCF8
ENDCHAR
STARTCHAR S
ENCODING 83
SWIDTH 625 0
DWIDTH 10 0
BBX 9 12 0 0
BITMAP
3E80
7180
E080
F000
FC00
FF00
7F80
1F80
0780
8380
C700
BE00
ENDCHAR
STARTCHAR T
ENCODING 84
SWIDTH 812 0
DWIDTH 13 0
BBX 12 12 0 0
BITMAP
FFF0
CF30
8F10
0F00
0F00
0F00
0F00
0F00
0F00
0F00
0F00
1F80
ENDCHAR
STARTCHAR U
ENCODING 85
SWIDTH 875 0
DWIDTH 14 0
BBX 13 12 0 0
BITMAP
FC78
7830
7830
7830
7830
7830
7830
7830
7830
7830
3C60
1FC0
ENDCHAR
STARTCHAR V
ENCODING 86
SWIDTH 750 0
DWIDTH 12 0
BBX 13 12 -1 0
BITMAP
FC78
7830
7830
3C20
3C20
1E60
1E40
1E40
0F80
0F80
0700
0700
ENDCHAR
STARTCHAR W
ENCODING 87
SWIDTH 1187 0
DWIDTH 19 0
BBX 20 12 -1 0
BITMAP
FCFCF0
787860
787840
3C7C40
3CFC80
3CBC80
1E9E80
1F1F00
1F1F00
0E0E00
0E0E00
0E0E00
ENDCHAR
STARTCHAR X
ENCODING 88
SWIDTH 875 0
DWIDTH 14 0
BBX 13 12 0 0
BITMAP
FC78
7830
3C60
1EC0
1F80
0F00
0780
0FC0
1BC0
31E0
60F0
F1F8
ENDCHAR
STARTCHAR Y
ENCODING 89
SWIDTH 812 0
DWIDTH 13 0
BBX 14 12 -1 0
BITMAP
FC3C
7818
3C10
1E20
1E20
0F40
0780
0780
0780
0780
0780
0FC0
ENDCHAR
STARTCHAR Z
ENCODING 90
SWIDTH 687 0
DWIDTH 11 0
BBX 10 12 0 0
BITMAP
FFC0
C1C0
83C0
07C0
0F80
1F00
3E00
7C00
F800
F040
E0C0
FFC0
ENDCHAR
STARTCHAR bracketleft
ENCODING 91
SWIDTH 437 0
DWIDTH 7 0
BBX 5 15 1 -2
BITMAP
F8
E0
E0
E0
E0
E0
E0
E0
E0
E0
E0
E0
E0
E0
F8
ENDCHAR
STARTCHAR backslash
ENCODING 92
SWIDTH 562 0
DWIDTH 9 0
BBX 9 14 0 -2
BITMAP
E000
E000
7000
7000
3800
3800
1C00
1C00
0E00
0E00
0700
0700
0380
0380
ENDCHAR
STARTCHAR bracketright
ENCODING 93
SWIDTH 437 0
DWIDTH 7 0
BBX 5 15 0 -2
BITMAP
F8
38
38
38
38
38
38
38
38
38
38
38
38
38
F8
ENDCHAR
STARTCHAR asciicircum
ENCODING 94
SWIDTH 500 0
DWIDTH 8 0
BBX 7 8 0 4
BITMAP
10
10
38
38
6C
6C
C6
C6
ENDCHAR
STARTCHAR underscore
ENCODING 95
SWIDTH 750 0
DWIDTH 12 0
BBX 12 2 0 -2
BITMAP
FFF0
FFF0
ENDCHAR
STARTCHAR grave
ENCODING 96
SWIDTH 375 0
DWIDTH 6 0
BBX 5 3 0 11
BITMAP
E0
70
18
ENDCHAR
STARTCHAR a
ENCODING 97
SWIDTH 687 0
DWIDTH 11 0
BBX 10 9 0 0
BITMAP
7F00
E780
C780
0F80
7780
E780
E780
F780
7BC0
ENDCHAR
STARTCHAR b
ENCODING 98
SWIDTH 750 0
DWIDTH 12 0
BBX 11 13 0 0
BITMAP
F800
7800
7800
7800
7B80
7DC0
79E0
79E0
79E0
79E0
79E0
7BC0
6780
ENDCHAR
STARTCHAR c
ENCODING 99
SWIDTH 562 0
DWIDTH 9 0
BBX 8 9 0 0
BITMAP
3F
7B
F0
F0
F0
F0
F0
79
3E
ENDCHAR
STARTCHAR d
ENCODING 100
SWIDTH 750 0
DWIDTH 12 0
BBX 11 13 0 0
BITMAP
07C0
03C0
03C0
03C0
3BC0
77C0
F3C0
F3C0
F3C0
F3C0
F3C0
73C0
3DE0
ENDCHAR
STARTCHAR e
ENCODING 101
SWIDTH 625 0
DWIDTH 10 0
BBX 9 9 0 0
BITMAP
3F00
7380
F380
FF80
F000
F000
F000
7880
3F00
ENDCHAR
STARTCHAR f
ENCODING 102
SWIDTH 500 0
DWIDTH 8 0
BBX 8 12 0 0
BITMAP
1F
3B
78
78
FE
78
78
78
78
78
78
FC
ENDCHAR
STARTCHAR g
ENCODING 103
SWIDTH 750 0
DWIDTH 12 0
BBX 11 13 0 -4
BITMAP
3F60
F3C0
F3C0
F3C0
F380
3F00
6000
FFC0
7FE0
E1E0
E0E0
F0E0
7FC0
ENDCHAR
STARTCHAR h
ENCODING 104
SWIDTH 812 0
DWIDTH 13 0
BBX 12 13 0 0
BITMAP
F800
7800
7800
7800
7BC0
7FE0
79E0
79E0
79E0
79E0
79E0
79E0
FDF0
ENDCHAR
STARTCHAR i
ENCODING 105
SWIDTH 437 0
DWIDTH 7 0
BBX 6 12 0 0
BITMAP
78
78
00
F8
78
78
78
78
78
78
78
FC
ENDCHAR
STARTCHAR j
ENCODING 106
SWIDTH 437 0
DWIDTH 7 0
BBX 7 16 -2 -4
BITMAP
1E
1E
00
3E
1E
1E
1E
1E
1E
1E
1E
1E
1E
1E
DC
F8
ENDCHAR
STARTCHAR k
ENCODING 107
SWIDTH 812 0
DWIDTH 13 0
BBX 13 13 0 0
BITMAP
F800
7800
7800
7800
78F0
79C0
7B80
7F00
7F80
7BC0
79E0
78F0
FCF8
ENDCHAR
STARTCHAR l
ENCODING 108
SWIDTH 437 0
DWIDTH 7 0
BBX 6 13 0 0
BITMAP
F8
78
78
78
78
78
78
78
78
78
78
78
FC
ENDCHAR
STARTCHAR m
ENCODING 109
SWIDTH 1187 0
DWIDTH 19 0
BBX 18 9 0 0
BITMAP
FBCF00
7DF780
79E780
79E780
79E780
79E780
79E780
79E780
FDF7C0
ENDCHAR
STARTCHAR n
ENCODING 110
SWIDTH 812 0
DWIDTH 13 0
BBX 12 9 0 0
BITMAP
FBC0
7DE0
79E0
79E0
79E0
79E0
79E0
79E0
FDF0
ENDCHAR
STARTCHAR o
ENCODING 111
SWIDTH 687 0
DWIDTH 11 0
BBX 10 9 0 0
BITMAP
3F00
7380
F3C0
F3C0
F3C0
F3C0
F3C0
7380
3F00
ENDCHAR
STARTCHAR p
ENCODING 112
SWIDTH 750 0
DWIDTH 12 0
BBX 11 13 0 -4
BITMAP
FB80
7DC0
79E0
79E0
79E0
79E0
79E0
79C0
7F80
7800
7800
7800
FC00
ENDCHAR
STARTCHAR q
ENCODING 113
SWIDTH 687 0
DWIDTH 11 0
BBX 11 13 0 -4
BITMAP
3CC0
73C0
F3C0
F3C0
F3C0
F3C0
F3C0
77C0
3BC0
03C0
03C0
03C0
07E0
ENDCHAR
STARTCHAR r
ENCODING 114
SWIDTH 625 0
DWIDTH 10 0
BBX 9 9 0 0
BITMAP
FB80
7F80
7800
7800
7800
7800
7800
7800
FC00
ENDCHAR
STARTCHAR s
ENCODING 115
SWIDTH 562 0
DWIDTH 9 0
BBX 8 9 0 0
BITMAP
7D
F3
F1
FC
7E
1F
8F
CF
BE
ENDCHAR
STARTCHAR t
ENCODING 116
SWIDTH 500 0
DWIDTH 8 0
BBX 7 12 0 0
BITMAP
08
18
38
FE
78
78
78
78
78
78
78
3E
ENDCHAR
STARTCHAR u
ENCODING 117
SWIDTH 812 0
DWIDTH 13 0
BBX 12 9 0 0
BITMAP
FBE0
79E0
79E0
79E0
79E0
79E0
79E0
7BE0
3CF0
ENDCHAR
STARTCHAR v
ENCODING 118
SWIDTH 625 0
DWIDTH 10 0
BBX 11 9 -1 0
BITMAP
FCE0
7840
7840
3C80
3C80
1F00
1F00
0E00
0E00
ENDCHAR
STARTCHAR w
ENCODING 119
SWIDTH 1000 0
DWIDTH 16 0
BBX 17 9 -1 0
BITMAP
FCF380
78F100
78F100
3D7A00
3D7A00
3D7A00
1E3C00
1E3C00
1E3C00
ENDCHAR
STARTCHAR x
ENCODING 120
SWIDTH 750 0
DWIDTH 12 0
BBX 11 9 0 0
BITMAP
FCE0
78C0
3C80
1F00
1F00
1F00
2780
63C0
E7E0
ENDCHAR
STARTCHAR y
ENCODING 121
SWIDTH 625 0
DWIDTH 10 0
BBX 11 13 -1 -4
BITMAP
FCE0
7840
3C40
3C80
1E80
1F00
0F00
0E00
0600
0400
0C00
7800
7000
ENDCHAR
STARTCHAR z
ENCODING 122
SWIDTH 625 0
DWIDTH 10 0
BBX 9 9 0 0
BITMAP
FF80
8780
0F00
1E00
1E00
3C00
7800
F080
FF80
ENDCHAR
STARTCHAR braceleft
ENCODING 123
SWIDTH 375 0
DWIDTH 6 0
BBX 5 15 0 -2
BITMAP
38
70
70
70
70
70
60
C0
60
70
70
70
70
70
38
ENDCHAR
STARTCHAR bar
ENCODING 124
SWIDTH 375 0
DWIDTH 6 0
BBX 3 15 1 -2
BITMAP
E0
E0
E0
E0
E0
E0
E0
E0
E0
E0
E0
E0
E0
E0
E0
ENDCHAR
STARTCHAR braceright
ENCODING 125
SWIDTH 375 0
DWIDTH 6 0
BBX 5 15 0 -2
BITMAP
E0
70
70
70
70
70
30
18
30
70
70
70
70
70
E0
ENDCHAR
STARTCHAR asciitilde
ENCODING 126
SWIDTH 625 0
DWIDTH 10 0
BBX 9 4 0 5
BITMAP
3880
7C80
9F00
8E00
ENDCHAR
STARTCHAR char007f
ENCODING 127
SWIDTH 0 0
DWIDTH 0 0
BBX 0 0 -2 -4
BITMAP
ENDCHAR
STARTCHAR Adieresis
ENCODING 128
SWIDTH 875 0
DWIDTH 14 0
BBX 15 15 -1 0
BITMAP
0660
0660
0000
0380
03C0
07C0
07E0
0DE0
09F0
18F0
10F8
3FF8
207C
607C
F0FE
ENDCHAR
STARTCHAR Aring
ENCODING 129
SWIDTH 875 0
DWIDTH 14 0
BBX 15 16 -1 0
BITMAP
0380
06C0
06C0
0380
0380
03C0
07C0
07E0
0DE0
09F0
18F0
10F8
3FF8
207C
607C
F0FE
ENDCHAR
STARTCHAR Ccedilla
ENCODING 130
SWIDTH 750 0
DWIDTH 12 0
BBX 11 15 0 -3
BITMAP
1FA0
7C60
7820
F000
F000
F000
F000
F000
F000
7820
7C60
1FC0
0300
0300
0E00
ENDCHAR
STARTCHAR Eacute
ENCODING 131
SWIDTH 687 0
DWIDTH 11 0
BBX 10 16 0 0
BITMAP
0700
0E00
1800
0000
FFC0
78C0
7840
7800
7880
7F80
7880
7800
7800
7840
78C0
FFC0
ENDCHAR
STARTCHAR Ntilde
ENCODING 132
SWIDTH 875 0
DWIDTH 14 0
BBX 13 16 0 0
BITMAP
0E40
1740
1380
0000
F078
7830
7C30
7E30
7F30
6FB0
67F0
63F0
61F0
60F0
6070
F030
ENDCHAR
STARTCHAR Odieresis
ENCODING 133
SWIDTH 875 0
DWIDTH 14 0
BBX 13 15 0 0
BITMAP
0CC0
0CC0
0000
1FC0
78F0
7070
F078
F078
F078
F078
F078
F078
7070
78F0
1FC0
ENDCHAR
STARTCHAR Udieresis
ENCODING 134
SWIDTH 875 0
DWIDTH 14 0
BBX 13 15 0 0
BITMAP
0CC0
0CC0
0000
FC78
7830
7830
7830
7830
7830
7830
7830
7830
7830
3C60
1FC0
ENDCHAR
STARTCHAR aacute
ENCODING 135
SWIDTH 687 0
DWIDTH 11 0
BBX 10 13 0 0
BITMAP
0700
0E00
1800
0000
7F00
E780
C780
0F80
7780
E780
E780
F780
7BC0
ENDCHAR
STARTCHAR agrave
ENCODING 136
SWIDTH 687 0
DWIDTH 11 0
BBX 10 13 0 0
BITMAP
3800
1C00
0600
0000
7F00
E780
C780
0F80
7780
E780
E780
F780
7BC0
ENDCHAR
STARTCHAR acircumflex
ENCODING 137
SWIDTH 687 0
DWIDTH 11 0
BBX 10 13 0 0
BITMAP
0800
1C00
3600
0000
7F00
E780
C780
0F80
7780
E780
E780
F780
7BC0
ENDCHAR
STARTCHAR adieresis
ENCODING 138
SWIDTH 687 0
DWIDTH 11 0
BBX 10 12 0 0
BITMAP
3300
3300
0000
7F00
E780
C780
0F80
7780
E780
E780
F780
7BC0
ENDCHAR
STARTCHAR atilde
ENCODING 139
SWIDTH 687 0
DWIDTH 11 0
BBX 10 13 0 0
BITMAP
3900
5D00
4E00
0000
7F00
E780
C780
0F80
7780
E780
E780
F780
7BC0
ENDCHAR
STARTCHAR aring
ENCODING 140
SWIDTH 687 0
DWIDTH 11 0
BBX 10 13 0 0
BITMAP
1C00
3600
1C00
0000
7F00
E780
C780
0F80
7780
E780
E780
F780
7BC0
ENDCHAR
STARTCHAR ccedilla
ENCODING 141
SWIDTH 562 0
DWIDTH 9 0
BBX 8 12 0 -3
BITMAP
3F
7B
F0
F0
F0
F0
F0
79
3E
0C
0C
38
ENDCHAR
STARTCHAR eacute
ENCODING 142
SWIDTH 625 0
DWIDTH 10 0
BBX 9 13 0 0
BITMAP
0700
0E00
1800
0000
3F00
7380
F380
FF80
F000
F000
F000
7880
3F00
ENDCHAR
STARTCHAR egrave
ENCODING 143
SWIDTH 625 0
DWIDTH 10 0
BBX 9 13 0 0
BITMAP
3800
1C00
0600
0000
3F00
7380
F380
FF80
F000
F000
F000
7880
3F00
ENDCHAR
STARTCHAR ecircumflex
ENCODING 144
SWIDTH 625 0
DWIDTH 10 0
BBX 9 13 0 0
BITMAP
0400
0E00
1B00
0000
3F00
7380
F380
FF80
F000
F000
F000
7880
3F00
ENDCHAR
STARTCHAR edieresis
ENCODING 145
SWIDTH 625 0
DWIDTH 10 0
BBX 9 12 0 0
BITMAP
3300
3300
0000
3F00
7380
F380
FF80
F000
F000
F000
7880
3F00
ENDCHAR
STARTCHAR iacute
ENCODING 146
SWIDTH 437 0
DWIDTH 7 0
BBX 6 13 0 0
BITMAP
1C
38
60
00
F8
78
78
78
78
78
78
78
FC
ENDCHAR
STARTCHAR igrave
ENCODING 147
SWIDTH 437 0
DWIDTH 7 0
BBX 6 13 0 0
BITMAP
E0
70
18
00
F8
78
78
78
78
78
78
78
FC
ENDCHAR
STARTCHAR icircumflex
ENCODING 148
SWIDTH 437 0
DWIDTH 7 0
BBX 6 13 0 0
BITMAP
20
70
D8
00
F8
78
78
78
78
78
78
78
FC
ENDCHAR
STARTCHAR idieresis
ENCODING 149
SWIDTH 437 0
DWIDTH 7 0
BBX 6 12 0 0
BITMAP
CC
CC
00
F8
78
78
78
78
78
78
78
FC
ENDCHAR
STARTCHAR ntilde
ENCODING 150
SWIDTH 812 0
DWIDTH 13 0
BBX 12 13 0 0
BITMAP
1C80
2E80
2700
0000
FBC0
7DE0
79E0
79E0
79E0
79E0
79E0
79E0
FDF0
ENDCHAR
STARTCHAR oacute
ENCODING 151
SWIDTH 687 0
DWIDTH 11 0
BBX 10 13 0 0
BITMAP
0700
0E00
1800
0000
3F00
7380
F3C0
F3C0
F3C0
F3C0
F3C0
7380
3F00
ENDCHAR
STARTCHAR ograve
ENCODING 152
SWIDTH 687 0
DWIDTH 11 0
BBX 10 13 0 0
BITMAP
3800
1C00
0600
0000
3F00
7380
F3C0
F3C0
F3C0
F3C0
F3C0
7380
3F00
ENDCHAR
STARTCHAR ocircumflex
ENCODING 153
SWIDTH 687 0
DWIDTH 11 0
BBX 10 13 0 0
BITMAP
0400
0E00
1B00
0000
3F00
7380
F3C0
F3C0
F3C0
F3C0
F3C0
7380
3F00
ENDCHAR
STARTCHAR odieresis
ENCODING 154
SWIDTH 687 0
DWIDTH 11 0
BBX 10 12 0 0
BITMAP
3300
3300
0000
3F00
7380
F3C0
F3C0
F3C0
F3C0
F3C0
7380
3F00
ENDCHAR
STARTCHAR otilde
ENCODING 155
SWIDTH 687 0
DWIDTH 11 0
BBX 10 13 0 0
BITMAP
1C80
2E80
2700
0000
3F00
7380
F3C0
F3C0
F3C0
F3C0
F3C0
7380
3F00
ENDCHAR
STARTCHAR uacute
ENCODING 156
SWIDTH 812 0
DWIDTH 13 0
BBX 12 13 0 0
BITMAP
0380
0700
0C00
0000
FBE0
79E0
79E0
79E0
79E0
79E0
79E0
7BE0
3CF0
ENDCHAR
STARTCHAR ugrave
ENCODING 157
SWIDTH 812 0
DWIDTH 13 0
BBX 12 13 0 0
BITMAP
1C00
0E00
0300
0000
FBE0
79E0
79E0
79E0
79E0
79E0
79E0
7BE0
3CF0
ENDCHAR
STARTCHAR ucircumflex
ENCODING 158
SWIDTH 812 0
DWIDTH 13 0
BBX 12 13 0 0
BITMAP
0400
0E00
1B00
0000
FBE0
79E0
79E0
79E0
79E0
79E0
79E0
7BE0
3CF0
ENDCHAR
STARTCHAR udieresis
ENCODING 159
SWIDTH 812 0
DWIDTH 13 0
BBX 12 12 0 0
BITMAP
1980
1980
0000
FBE0
79E0
79E0
79E0
79E0
79E0
79E0
7BE0
3CF0
ENDCHAR
STARTCHAR dagger
ENCODING 160
SWIDTH 812 0
DWIDTH 13 0
BBX 11 11 1 0
BITMAP
60C0
9120
9120
7FC0
1100
1100
1100
7FC0
9120
9120
60C0
ENDCHAR
STARTCHAR degree
ENCODING 161
SWIDTH 312 0
DWIDTH 5 0
BBX 4 4 0 8
BITMAP
60
90
90
60
ENDCHAR
STARTCHAR cent
ENCODING 162
SWIDTH 625 0
DWIDTH 10 0
BBX 8 13 1 -2
BITMAP
04
04
3F
79
F0
F0
F0
F0
F0
79
3E
04
04
ENDCHAR
STARTCHAR sterling
ENCODING 163
SWIDTH 625 0
DWIDTH 10 0
BBX 9 12 1 0
BITMAP
3E00
7900
7800
7800
7800
FE00
7800
7800
7800
7800
7880
FF00
ENDCHAR
STARTCHAR section
ENCODING 164
SWIDTH 937 0
DWIDTH 15 0
BBX 13 13 1 -1
BITMAP
0200
0700
0F80
0780
3320
7870
F8F8
70F0
2660
0F00
0F80
0700
0200
ENDCHAR
STARTCHAR bullet
ENCODING 165
SWIDTH 562 0
DWIDTH 9 0
BBX 6 6 1 3
BITMAP
78
FC
FC
FC
FC
78
ENDCHAR
STARTCHAR paragraph
ENCODING 166
SWIDTH 687 0
DWIDTH 11 0
BBX 10 13 0 -1
BITMAP
7FC0
FB80
FB80
FB80
FB80
7B80
1B80
1B80
1B80
1B80
1B80
1B80
3BC0
ENDCHAR
STARTCHAR germandbls
ENCODING 167
SWIDTH 875 0
DWIDTH 14 0
BBX 13 12 0 0
BITMAP
1FC0
39E0
78E0
78E0
F8C0
7980
7BE0
78F0
7878
7878
7A78
FBF0
ENDCHAR
STARTCHAR registered
ENCODING 168
SWIDTH 625 0
DWIDTH 10 0
BBX 9 9 0 0
BITMAP
3E00
4100
BC80
A280
BC80
A480
A280
4100
3E00
ENDCHAR
STARTCHAR copyright
ENCODING 169
SWIDTH 625 0
DWIDTH 10 0
BBX 9 9 0 0
BITMAP
3E00
4100
9C80
A080
A080
A080
9C80
4100
3E00
ENDCHAR
STARTCHAR trademark
ENCODING 170
SWIDTH 625 0
DWIDTH 10 0
BBX 9 4 0 9
BITMAP
E880
4D80
4A80
4A80
ENDCHAR
STARTCHAR acute
ENCODING 171
SWIDTH 437 0
DWIDTH 7 0
BBX 5 3 1 10
BITMAP
38
70
C0
ENDCHAR
STARTCHAR dieresis
ENCODING 172
SWIDTH 500 0
DWIDTH 8 0
BBX 6 2 1 10
BITMAP
CC
CC
ENDCHAR
STARTCHAR notequal
ENCODING 173
SWIDTH 687 0
DWIDTH 11 0
BBX 9 9 1 1
BITMAP
0100
0200
FF80
FF80
0800
FF80
FF80
2000
4000
ENDCHAR
STARTCHAR AE
ENCODING 174
SWIDTH 1062 0
DWIDTH 17 0
BBX 17 12 -1 0
BITMAP
01FF80
03F180
02F080
06F000
04F100
0CFF00
08F100
18F000
3FF000
20F080
60F180
F1FF80
ENDCHAR
STARTCHAR Oslash
ENCODING 175
SWIDTH 875 0
DWIDTH 14 0
BBX 13 12 0 0
BITMAP
1FD8
78F0
7070
F0F8
F1F8
F378
F678
FC78
F878
7070
78F0
DFC0
ENDCHAR
STARTCHAR infinity
ENCODING 176
SWIDTH 875 0
DWIDTH 14 0
BBX 12 5 1 3
BITMAP
73E0
EFB0
CF30
DF70
7CE0
ENDCHAR
STARTCHAR plusminus
ENCODING 177
SWIDTH 625 0
DWIDTH 10 0
BBX 8 8 1 2
BITMAP
18
18
FF
FF
18
18
FF
FF
ENDCHAR
STARTCHAR lessequal
ENCODING 178
SWIDTH 625 0
DWIDTH 10 0
BBX 8 8 1 1
BITMAP
0F
3C
F0
3C
0F
00
FF
FF
ENDCHAR
STARTCHAR greaterequal
ENCODING 179
SWIDTH 625 0
DWIDTH 10 0
BBX 8 8 1 1
BITMAP
F0
3C
0F
3C
F0
00
FF
FF
ENDCHAR
STARTCHAR yen
ENCODING 180
SWIDTH 750 0
DWIDTH 12 0
BBX 12 11 0 0
BITMAP
FCF0
7860
3840
1C80
1E80
0F00
7FE0
0F00
7FE0
0F00
1F80
ENDCHAR
STARTCHAR mu
ENCODING 181
SWIDTH 812 0
DWIDTH 13 0
BBX 12 12 0 -3
BITMAP
FBE0
79E0
79E0
79E0
79E0
79E0
79E0
7BE0
7CF0
7000
7000
7000
ENDCHAR
STARTCHAR partialdiff
ENCODING 182
SWIDTH 750 0
DWIDTH 12 0
BBX 10 12 0 0
BITMAP
3F00
0780
03C0
03C0
3FC0
73C0
F3C0
F3C0
F3C0
F3C0
FB80
7F00
ENDCHAR
STARTCHAR summation
ENCODING 183
SWIDTH 625 0
DWIDTH 10 0
BBX 9 13 0 -1
BITMAP
FF80
FF80
F080
7800
3C00
1E00
0C00
1800
3000
6080
FF80
FF80
FF80
ENDCHAR
STARTCHAR product
ENCODING 184
SWIDTH 875 0
DWIDTH 14 0
BBX 13 13 0 -1
BITMAP
FFF8
78F0
78F0
78F0
78F0
78F0
78F0
78F0
78F0
78F0
78F0
78F0
FDF8
ENDCHAR
STARTCHAR pi
ENCODING 185
SWIDTH 812 0
DWIDTH 13 0
BBX 13 8 0 0
BITMAP
FFF0
79E0
79E0
79E0
79E0
79F8
79F0
F9E0
ENDCHAR
STARTCHAR integral
ENCODING 186
SWIDTH 375 0
DWIDTH 6 0
BBX 7 18 -1 -4
BITMAP
1E
38
38
38
38
38
38
38
38
38
38
38
38
38
38
38
38
F0
ENDCHAR
STARTCHAR ordfeminine
ENCODING 187
SWIDTH 562 0
DWIDTH 9 0
BBX 8 7 0 5
BITMAP
7F
E7
E7
EF
77
00
FF
ENDCHAR
STARTCHAR ordmasculine
ENCODING 188
SWIDTH 562 0
DWIDTH 9 0
BBX 8 7 0 5
BITMAP
7E
E7
E7
E7
7E
00
FF
ENDCHAR
STARTCHAR Omega
ENCODING 189
SWIDTH 875 0
DWIDTH 14 0
BBX 13 12 0 0
BITMAP
0F80
3DE0
7070
E038
E038
E038
E038
7070
38E0
1DC0
DDD8
FDF8
ENDCHAR
STARTCHAR ae
ENCODING 190
SWIDTH 937 0
DWIDTH 15 0
BBX 14 9 0 0
BITMAP
7EF8
E79C
C79C
0FFC
7780
E780
E780
F7C4
7BF8
ENDCHAR
STARTCHAR oslash
ENCODING 191
SWIDTH 812 0
DWIDTH 13 0
BBX 12 9 0 0
BITMAP
1FB0
39E0
79E0
7BE0
7FE0
7DE0
79E0
79C0
DF80
ENDCHAR
STARTCHAR questiondown
ENCODING 192
SWIDTH 562 0
DWIDTH 9 0
BBX 8 12 0 -3
BITMAP
1C
1C
00
1C
1C
1C
38
70
E0
E7
E7
7E
ENDCHAR
STARTCHAR exclamdown
ENCODING 193
SWIDTH 375 0
DWIDTH 6 0
BBX 3 12 1 -3
BITMAP
E0
E0
00
E0
E0
E0
E0
E0
E0
E0
E0
E0
ENDCHAR
STARTCHAR logicalnot
ENCODING 194
SWIDTH 687 0
DWIDTH 11 0
BBX 9 5 1 1
BITMAP
FF80
FF80
0180
0180
0180
ENDCHAR
STARTCHAR radical
ENCODING 195
SWIDTH 562 0
DWIDTH 9 0
BBX 8 14 0 -2
BITMAP
03
03
03
06
06
06
C4
CC
6C
68
38
38
10
10
ENDCHAR
STARTCHAR florin
ENCODING 196
SWIDTH 750 0
DWIDTH 12 0
BBX 13 14 -1 -2
BITMAP
00F8
01E0
03C0
03C0
0FF0
0780
0780
0F00
0F00
1E00
1E00
3C00
3C00
F800
ENDCHAR
STARTCHAR approxequal
ENCODING 197
SWIDTH 687 0
DWIDTH 11 0
BBX 9 5 1 3
BITMAP
7980
CF00
0000
7980
CF00
ENDCHAR
STARTCHAR Delta
ENCODING 198
SWIDTH 1000 0
DWIDTH 16 0
BBX 15 13 0 0
BITMAP
0380
0380
07C0
07C0
09E0
09E0
10F0
10F0
2078
2078
403C
403C
FFFE
ENDCHAR
STARTCHAR guillemotleft
ENCODING 199
SWIDTH 750 0
DWIDTH 12 0
BBX 11 7 0 1
BITMAP
1CE0
39C0
7380
E700
7380
39C0
1CE0
ENDCHAR
STARTCHAR guillemotright
ENCODING 200
SWIDTH 750 0
DWIDTH 12 0
BBX 11 7 0 1
BITMAP
E700
7380
39C0
1CE0
39C0
7380
E700
ENDCHAR
STARTCHAR ellipsis
ENCODING 201
SWIDTH 875 0
DWIDTH 14 0
BBX 12 2 1 0
BITMAP
C630
C630
ENDCHAR
STARTCHAR nbspace
ENCODING 202
SWIDTH 250 0
DWIDTH 4 0
BBX 0 0 -2 -4
BITMAP
ENDCHAR
STARTCHAR Agrave
ENCODING 203
SWIDTH 875 0
DWIDTH 14 0
BBX 15 16 -1 0
BITMAP
0700
0380
00C0
0000
0380
03C0
07C0
07E0
0DE0
09F0
18F0
10F8
3FF8
207C
607C
F0FE
ENDCHAR
STARTCHAR Atilde
ENCODING 204
SWIDTH 875 0
DWIDTH 14 0
BBX 15 16 -1 0
BITMAP
0720
0BA0
09C0
0000
0380
03C0
07C0
07E0
0DE0
09F0
18F0
10F8
3FF8
207C
607C
F0FE
ENDCHAR
STARTCHAR Otilde
ENCODING 205
SWIDTH 875 0
DWIDTH 14 0
BBX 13 16 0 0
BITMAP
0E40
1740
1380
0000
1FC0
78F0
7070
F078
F078
F078
F078
F078
F078
7070
78F0
1FC0
ENDCHAR
STARTCHAR OE
ENCODING 206
SWIDTH 1125 0
DWIDTH 18 0
BBX 17 12 0 0
BITMAP
1FFF80
78F180
70F080
F0F000
F0F100
F0FF00
F0F100
F0F000
F0F000
70F080
78F180
1FFF80
ENDCHAR
STARTCHAR oe
ENCODING 207
SWIDTH 1000 0
DWIDTH 16 0
BBX 15 9 0 0
BITMAP
3F7C
73CE
F3CE
F3FE
F3C0
F3C0
F3C0
73E2
3EFC
ENDCHAR
STARTCHAR endash
ENCODING 208
SWIDTH 750 0
DWIDTH 12 0
BBX 11 2 0 5
BITMAP
FFE0
FFE0
ENDCHAR
STARTCHAR emdash
ENCODING 209
SWIDTH 1187 0
DWIDTH 19 0
BBX 18 2 0 5
BITMAP
FFFFC0
FFFFC0
ENDCHAR
STARTCHAR quotedblleft
ENCODING 210
SWIDTH 500 0
DWIDTH 8 0
BBX 7 4 0 9
BITMAP
66
CC
EE
EE
ENDCHAR
STARTCHAR quotedblright
ENCODING 211
SWIDTH 500 0
DWIDTH 8 0
BBX 7 4 0 9
BITMAP
EE
EE
66
CC
ENDCHAR
STARTCHAR quoteleft
ENCODING 212
SWIDTH 250 0
DWIDTH 4 0
BBX 3 4 0 9
BITMAP
60
C0
E0
E0
ENDCHAR
STARTCHAR quoteright
ENCODING 213
SWIDTH 250 0
DWIDTH 4 0
BBX 3 4 0 9
BITMAP
E0
E0
60
C0
ENDCHAR
STARTCHAR divide
ENCODING 214
SWIDTH 625 0
DWIDTH 10 0
BBX 8 8 1 1
BITMAP
18
18
00
FF
FF
00
18
18
ENDCHAR
STARTCHAR lozenge
ENCODING 215
SWIDTH 750 0
DWIDTH 12 0
BBX 9 16 1 -2
BITMAP
0800
0800
1C00
3600
3600
6300
6300
C180
C180
6300
6300
3600
3600
1C00
0800
0800
ENDCHAR
STARTCHAR ydieresis
ENCODING 216
SWIDTH 625 0
DWIDTH 10 0
BBX 11 16 -1 -4
BITMAP
1980
1980
0000
FCE0
7840
3C40
3C80
1E80
1F00
0F00
0E00
0600
0400
0C00
7800
7000
ENDCHAR
STARTCHAR Ydieresis
ENCODING 217
SWIDTH 812 0
DWIDTH 13 0
BBX 14 15 -1 0
BITMAP
0CC0
0CC0
0000
FC3C
7818
3C10
1E20
1E20
0F40
0780
0780
0780
0780
0780
0FC0
ENDCHAR
STARTCHAR fraction
ENCODING 218
SWIDTH 562 0
DWIDTH 9 0
BBX 9 14 0 -2
BITMAP
0380
0380
0700
0700
0E00
0E00
1C00
1C00
3800
3800
7000
7000
E000
E000
ENDCHAR
STARTCHAR currency
ENCODING 219
SWIDTH 812 0
DWIDTH 13 0
BBX 11 9 1 0
BITMAP
DF60
3F80
71C0
60C0
60C0
60C0
71C0
3F80
DF60
ENDCHAR
STARTCHAR guilsinglleft
ENCODING 220
SWIDTH 437 0
DWIDTH 7 0
BBX 6 7 0 1
BITMAP
1C
38
70
E0
70
38
1C
ENDCHAR
STARTCHAR guilsinglright
ENCODING 221
SWIDTH 437 0
DWIDTH 7 0
BBX 6 7 0 1
BITMAP
E0
70
38
1C
38
70
E0
ENDCHAR
STARTCHAR fi
ENCODING 222
SWIDTH 875 0
DWIDTH 14 0
BBX 13 12 0 0
BITMAP
0FF0
3CF0
7800
FFF0
78F0
78F0
78F0
78F0
78F0
78F0
78F0
FDF8
ENDCHAR
STARTCHAR fl
ENCODING 223
SWIDTH 937 0
DWIDTH 15 0
BBX 14 13 0 0
BITMAP
0078
0FF8
3CF8
7878
FF78
7878
7878
7878
7878
7878
7878
7878
FCFC
ENDCHAR
STARTCHAR daggerdbl
ENCODING 224
SWIDTH 812 0
DWIDTH 13 0
BBX 9 9 2 0
BITMAP
FF80
FF80
FF80
FF80
FF80
FF80
FF80
FF80
FF80
ENDCHAR
STARTCHAR periodcentered
ENCODING 225
SWIDTH 375 0
DWIDTH 6 0
BBX 3 2 1 5
BITMAP
E0
E0
ENDCHAR
STARTCHAR quotesinglbase
ENCODING 226
SWIDTH 250 0
DWIDTH 4 0
BBX 3 4 0 -2
BITMAP
E0
E0
60
C0
ENDCHAR
STARTCHAR quotedblbase
ENCODING 227
SWIDTH 500 0
DWIDTH 8 0
BBX 7 4 0 -2
BITMAP
EE
EE
66
CC
ENDCHAR
STARTCHAR perthousand
ENCODING 228
SWIDTH 1500 0
DWIDTH 24 0
BBX 23 12 0 0
BITMAP
7DF800
EF3800
EE7000
EEE000
7CE000
01C000
038000
03BE7C
0777EE
0E77EE
0E77EE
1C3E7C
ENDCHAR
STARTCHAR Acircumflex
ENCODING 229
SWIDTH 875 0
DWIDTH 14 0
BBX 15 16 -1 0
BITMAP
0100
0380
06C0
0000
0380
03C0
07C0
07E0
0DE0
09F0
18F0
10F8
3FF8
207C
607C
F0FE
ENDCHAR
STARTCHAR Ecircumflex
ENCODING 230
SWIDTH 687 0
DWIDTH 11 0
BBX 10 16 0 0
BITMAP
0400
0E00
1B00
0000
FFC0
78C0
7840
7800
7880
7F80
7880
7800
7800
7840
78C0
FFC0
ENDCHAR
STARTCHAR Aacute
ENCODING 231
SWIDTH 875 0
DWIDTH 14 0
BBX 15 16 -1 0
BITMAP
01C0
0380
0600
0000
0380
03C0
07C0
07E0
0DE0
09F0
18F0
10F8
3FF8
207C
607C
F0FE
ENDCHAR
STARTCHAR Edieresis
ENCODING 232
SWIDTH 687 0
DWIDTH 11 0
BBX 10 15 0 0
BITMAP
3300
3300
0000
FFC0
78C0
7840
7800
7880
7F80
7880
7800
7800
7840
78C0
FFC0
ENDCHAR
STARTCHAR Egrave
ENCODING 233
SWIDTH 687 0
DWIDTH 11 0
BBX 10 16 0 0
BITMAP
3800
1C00
0600
0000
FFC0
78C0
7840
7800
7880
7F80
7880
7800
7800
7840
78C0
FFC0
ENDCHAR
STARTCHAR Iacute
ENCODING 234
SWIDTH 437 0
DWIDTH 7 0
BBX 6 16 0 0
BITMAP
1C
38
60
00
FC
78
78
78
78
78
78
78
78
78
78
FC
ENDCHAR
STARTCHAR Icircumflex
ENCODING 235
SWIDTH 437 0
DWIDTH 7 0
BBX 6 16 0 0
BITMAP
10
38
6C
00
FC
78
78
78
78
78
78
78
78
78
78
FC
ENDCHAR
STARTCHAR Idieresis
ENCODING 236
SWIDTH 437 0
DWIDTH 7 0
BBX 6 15 0 0
BITMAP
CC
CC
00
FC
78
78
78
78
78
78
78
78
78
78
FC
ENDCHAR
STARTCHAR Igrave
ENCODING 237
SWIDTH 437 0
DWIDTH 7 0
BBX 6 16 0 0
BITMAP
E0
70
18
00
FC
78
78
78
78
78
78
78
78
78
78
FC
ENDCHAR
STARTCHAR Oacute
ENCODING 238
SWIDTH 875 0
DWIDTH 14 0
BBX 13 16 0 0
BITMAP
01C0
0380
0600
0000
1FC0
78F0
7070
F078
F078
F078
F078
F078
F078
7070
78F0
1FC0
ENDCHAR
STARTCHAR Ocircumflex
ENCODING 239
SWIDTH 875 0
DWIDTH 14 0
BBX 13 16 0 0
BITMAP
0200
0700
0D80
0000
1FC0
78F0
7070
F078
F078
F078
F078
F078
F078
7070
78F0
1FC0
ENDCHAR
STARTCHAR apple
ENCODING 240
SWIDTH 687 0
DWIDTH 11 0
BBX 10 12 0 0
BITMAP
0200
0600
0400
7380
FFC0
FF80
FF00
FF00
FF80
7FC0
7F80
3300
ENDCHAR
STARTCHAR Ograve
ENCODING 241
SWIDTH 875 0
DWIDTH 14 0
BBX 13 16 0 0
BITMAP
1C00
0E00
0300
0000
1FC0
78F0
7070
F078
F078
F078
F078
F078
F078
7070
78F0
1FC0
ENDCHAR
STARTCHAR Uacute
ENCODING 242
SWIDTH 875 0
DWIDTH 14 0
BBX 13 16 0 0
BITMAP
01C0
0380
0600
0000
FC78
7830
7830
7830
7830
7830
7830
7830
7830
7830
3C60
1FC0
ENDCHAR
STARTCHAR Ucircumflex
ENCODING 243
SWIDTH 875 0
DWIDTH 14 0
BBX 13 16 0 0
BITMAP
0200
0700
0D80
0000
FC78
7830
7830
7830
7830
7830
7830
7830
7830
7830
3C60
1FC0
ENDCHAR
STARTCHAR Ugrave
ENCODING 244
SWIDTH 875 0
DWIDTH 14 0
BBX 13 16 0 0
BITMAP
0E00
0700
0180
0000
FC78
7830
7830
7830
7830
7830
7830
7830
7830
7830
3C60
1FC0
ENDCHAR
STARTCHAR dotlessi
ENCODING 245
SWIDTH 437 0
DWIDTH 7 0
BBX 6 9 0 0
BITMAP
F8
78
78
78
78
78
78
78
FC
ENDCHAR
STARTCHAR circumflex
ENCODING 246
SWIDTH 437 0
DWIDTH 7 0
BBX 5 3 1 9
BITMAP
20
70
D8
ENDCHAR
STARTCHAR tilde
ENCODING 247
SWIDTH 562 0
DWIDTH 9 0
BBX 7 3 1 9
BITMAP
72
BA
9C
ENDCHAR
STARTCHAR macron
ENCODING 248
SWIDTH 437 0
DWIDTH 7 0
BBX 5 2 1 9
BITMAP
F8
F8
ENDCHAR
STARTCHAR breve
ENCODING 249
SWIDTH 437 0
DWIDTH 7 0
BBX 5 3 1 9
BITMAP
88
F8
70
ENDCHAR
STARTCHAR dotaccent
ENCODING 250
SWIDTH 250 0
DWIDTH 4 0
BBX 2 2 1 10
BITMAP
C0
C0
ENDCHAR
STARTCHAR ring
ENCODING 251
SWIDTH 437 0
DWIDTH 7 0
BBX 5 4 1 9
BITMAP
70
D8
D8
70
ENDCHAR
STARTCHAR cedilla
ENCODING 252
SWIDTH 375 0
DWIDTH 6 0
BBX 4 4 1 -4
BITMAP
60
30
30
E0
ENDCHAR
STARTCHAR hungarumlaut
ENCODING 253
SWIDTH 562 0
DWIDTH 9 0
BBX 7 3 1 9
BITMAP
36
6C
D8
ENDCHAR
STARTCHAR ogonek
ENCODING 254
SWIDTH 312 0
DWIDTH 5 0
BBX 4 4 0 -4
BITMAP
60
C0
C0
70
ENDCHAR
STARTCHAR caron
ENCODING 255
SWIDTH 375 0
DWIDTH 6 0
BBX 5 3 0 9
BITMAP
D8
70
20
ENDCHAR
ENDFONT
